<svg width="190" height="249" viewBox="0 0 190 249" fill="none" xmlns="http://www.w3.org/2000/svg">
<circle cx="110" cy="224" r="25" fill="#C4C4C4"/>
<path d="M85 200H135V205C135 207.761 132.761 210 130 210H90C87.2386 210 85 207.761 85 205V200Z" fill="black"/>
<rect x="105" y="80" width="10" height="10" fill="#C4C4C4"/>
<path d="M95 95C95 92.2386 97.2386 90 100 90H120C122.761 90 125 92.2386 125 95V100H95V95Z" fill="black"/>
<rect x="85" y="30" width="50" height="50" rx="5" fill="#C4C4C4"/>
<rect x="105" y="10" width="10" height="10" fill="#C4C4C4"/>

<path d="M60 0H160V5C160 7.76142 157.761 10 155 10H65C62.2386 10 60 7.76142 60 5V0Z" fill="black"/>

<path d="M95 25C95 22.2386 97.2386 20 100 20H120C122.761 20 125 22.2386 125 25V30H95V25Z" fill="black"/>
<rect x="60" y="100" width="100" height="100" rx="10" fill="#C4C4C4"/>
<rect x="110" y="115" width="45" height="30" rx="6" fill="black"/>
<rect x="65" y="165" width="45" height="30" rx="6" fill="black"/>
<circle cx="85" cy="125.13" r="15.6522" fill="#828282"/>
<rect x="99.7826" y="122.522" width="5.21739" height="5.21739" fill="#828282"/>
<rect x="65" y="121.652" width="5.21739" height="5.21739" fill="#828282"/>
<rect x="89.4241" y="110.776" width="5.51511" height="5.51511" transform="rotate(-60 89.4241 110.776)" fill="#828282"/>
<rect x="72.0909" y="140.715" width="5.51511" height="5.51511" transform="rotate(-60 72.0909 140.715)" fill="#828282"/>
<rect x="74.8484" y="114.322" width="5.51511" height="5.51511" transform="rotate(-120 74.8484 114.322)" fill="#828282"/>
<rect x="92.1816" y="144.261" width="5.51511" height="5.51511" transform="rotate(-120 92.1816 144.261)" fill="#828282"/>
<circle cx="84.5652" cy="124.696" r="3.91304" fill="black"/>
<ellipse cx="134.5" cy="174.5" rx="10" ry="10.5" fill="#828282"/>
<rect x="144" y="173" width="3" height="3" fill="#828282"/>
<rect x="122" y="172" width="3" height="3" fill="#828282"/>
<rect x="137.323" y="165.121" width="3.60363" height="3.60363" transform="rotate(-60 137.323 165.121)" fill="#828282"/>
<rect x="125.997" y="184.683" width="3.60363" height="3.60363" transform="rotate(-60 125.997 184.683)" fill="#828282"/>
<rect x="127.799" y="167.437" width="3.60363" height="3.60363" transform="rotate(-120 127.799 167.437)" fill="#828282"/>
<rect x="139.124" y="187" width="3.60363" height="3.60363" transform="rotate(-120 139.124 187)" fill="#828282"/>
<circle cx="134.5" cy="174.5" r="2.5" fill="black"/>
<path d="M160 160H165C167.761 160 170 162.239 170 165V185C170 187.761 167.761 190 165 190H160V160Z" fill="black"/>
<path d="M160 110H165C167.761 110 170 112.239 170 115V135C170 137.761 167.761 140 165 140H160V110Z" fill="black"/>
<path fill-rule="evenodd" clip-rule="evenodd" d="M170 120H180C185.523 120 190 124.477 190 130V170C190 175.523 185.523 180 180 180H170V170H177.865L175 170C177.761 170 180 167.761 180 165V131C180 133.5 180 137.761 180 135C180 132.239 177.761 130 175 130L180 130H170V120Z" fill="#C4C4C4"/>
<path d="M50 165C50 162.239 52.2386 160 55 160H60V190H55C52.2386 190 50 187.761 50 185V165Z" fill="black"/>
<path fill-rule="evenodd" clip-rule="evenodd" d="M40 120C34.4772 120 30 124.477 30 130V170C30 175.523 34.4772 180 40 180H50V170H42.135L45 170C42.2386 170 40 167.63 40 164.707V120Z" fill="#C4C4C4"/>
<path d="M20 130H50V135C50 137.761 47.7614 140 45 140H25C22.2386 140 20 137.761 20 135V130Z" fill="black"/>
<rect y="60" width="70" height="70" rx="10" fill="#C4C4C4"/>
<rect x="10" y="90" width="50" height="30" rx="5" fill="black"/>
</svg>
