<svg width="190" height="150" viewBox="0 0 190 150">
<circle cx="110" cy="120" r="25" fill="#C4C4C4"/>
<path d="M85 140H135V145C135 147.761 132.761 150 130 150H90C87.2386 150 85 147.761 85 145V140Z" fill="black"/>
<rect x="105" y="90" width="10" height="10" fill="#C4C4C4"/>
<path d="M95 105C95 102.239 97.2386 100 100 100H120C122.761 100 125 102.239 125 105V110H95V105Z" fill="black"/>
<rect x="85" y="40" width="50" height="50" rx="5" fill="#C4C4C4"/>
<rect x="105" y="20" width="10" height="10" fill="#C4C4C4"/>

<path d="M60 10H160V15C160 17.7614 157.761 20 155 20H65C62.2386 20 60 17.7614 60 15V10Z" fill="black"/>

<path d="M95 35C95 32.2386 97.2386 30 100 30H120C122.761 30 125 32.2386 125 35V40H95V35Z" fill="black"/>
<rect x="60" y="40" width="100" height="100" rx="10" fill="#C4C4C4"/>
<rect x="110" y="55" width="45" height="30" rx="6" fill="black"/>
<rect x="65" y="105" width="45" height="30" rx="6" fill="black"/>
<circle cx="85" cy="65.1304" r="15.6522" fill="#828282"/>
<rect x="99.7826" y="62.5217" width="5.21739" height="5.21739" fill="#828282"/>
<rect x="65" y="61.6522" width="5.21739" height="5.21739" fill="#828282"/>
<rect x="89.4241" y="50.7762" width="5.51511" height="5.51511" transform="rotate(-60 89.4241 50.7762)" fill="#828282"/>
<rect x="72.0909" y="80.7154" width="5.51511" height="5.51511" transform="rotate(-60 72.0909 80.7154)" fill="#828282"/>
<rect x="74.8484" y="54.3217" width="5.51511" height="5.51511" transform="rotate(-120 74.8484 54.3217)" fill="#828282"/>
<rect x="92.1816" y="84.2608" width="5.51511" height="5.51511" transform="rotate(-120 92.1816 84.2608)" fill="#828282"/>
<circle cx="84.5652" cy="64.6956" r="3.91304" fill="black"/>
<ellipse cx="134.5" cy="114.5" rx="10" ry="10.5" fill="#828282"/>
<rect x="144" y="113" width="3" height="3" fill="#828282"/>
<rect x="122" y="112" width="3" height="3" fill="#828282"/>
<rect x="137.323" y="105.121" width="3.60363" height="3.60363" transform="rotate(-60 137.323 105.121)" fill="#828282"/>
<rect x="125.997" y="124.683" width="3.60363" height="3.60363" transform="rotate(-60 125.997 124.683)" fill="#828282"/>
<rect x="127.799" y="107.437" width="3.60363" height="3.60363" transform="rotate(-120 127.799 107.437)" fill="#828282"/>
<rect x="139.124" y="127" width="3.60363" height="3.60363" transform="rotate(-120 139.124 127)" fill="#828282"/>
<circle cx="134.5" cy="114.5" r="2.5" fill="black"/>
<path d="M160 100H165C167.761 100 170 102.239 170 105V125C170 127.761 167.761 130 165 130H160V100Z" fill="black"/>
<path d="M160 50H165C167.761 50 170 52.2386 170 55V75C170 77.7614 167.761 80 165 80H160V50Z" fill="black"/>
<path fill-rule="evenodd" clip-rule="evenodd" d="M170 60H180C185.523 60 190 64.4772 190 70V110C190 115.523 185.523 120 180 120H170V110H177.865L175 110C177.761 110 180 107.761 180 105V71C180 73.5 180 77.7615 180 75C180 72.2386 177.761 70 175 70L180 70H170V60Z" fill="#C4C4C4"/>
<path d="M50 105C50 102.239 52.2386 100 55 100H60V130H55C52.2386 130 50 127.761 50 125V105Z" fill="black"/>
<path fill-rule="evenodd" clip-rule="evenodd" d="M40 60C34.4772 60 30 64.4772 30 70V110C30 115.523 34.4772 120 40 120H50V110H42.135L45 110C42.2386 110 40 107.63 40 104.707V60Z" fill="#C4C4C4"/>
<path d="M20 70H50V75C50 77.7614 47.7614 80 45 80H25C22.2386 80 20 77.7614 20 75V70Z" fill="black"/>
<rect width="70" height="70" rx="10" fill="#C4C4C4"/>
<rect x="10" y="30" width="50" height="30" rx="5" fill="black"/>
</svg>
